<svg width="16" height="17" viewBox="0 0 16 17" fill="none" xmlns="http://www.w3.org/2000/svg">
    <path
        d="M12.5833 7.24983C12.7296 7.24984 12.8707 7.30489 12.9784 7.40406C13.0861 7.50323 13.1525 7.63926 13.1646 7.78516L13.1666 7.83316V12.5832C13.1665 13.0788 12.9745 13.5551 12.6308 13.9121C12.2871 14.2692 11.8185 14.4792 11.3233 14.4982L11.2499 14.4998H4.74992C4.25427 14.4998 3.77789 14.3079 3.42077 13.9642C3.06364 13.6205 2.85355 13.1518 2.83459 12.6565L2.83325 12.5832V7.83316C2.83332 7.68266 2.89156 7.538 2.99579 7.42943C3.10002 7.32086 3.24219 7.25678 3.39256 7.25059C3.54294 7.24439 3.6899 7.29655 3.80271 7.39618C3.91552 7.4958 3.98547 7.63517 3.99792 7.78516L3.99992 7.83316V12.5832C3.99998 12.7731 4.07214 12.956 4.20182 13.0949C4.3315 13.2337 4.50905 13.3182 4.69859 13.3312L4.74992 13.3332H11.2499C11.44 13.3332 11.6229 13.2611 11.7618 13.1314C11.9007 13.0017 11.9852 12.8241 11.9983 12.6345L11.9999 12.5832V7.83316C11.9999 7.51083 12.2609 7.24983 12.5833 7.24983ZM7.83292 2.58883L7.88259 2.58416L7.94092 2.5835L7.99225 2.58783L8.05159 2.5985L8.07459 2.6045C8.13959 2.6225 8.20225 2.65216 8.25892 2.6935L8.29892 2.72516L8.32992 2.75383L10.9226 5.3465C11.0292 5.45232 11.0908 5.59516 11.0947 5.7453C11.0986 5.89543 11.0444 6.04129 10.9435 6.15249C10.8426 6.2637 10.7026 6.33169 10.5528 6.34231C10.403 6.35293 10.2549 6.30535 10.1393 6.2095L10.0976 6.1715L8.49992 4.57383V10.9998C8.49991 11.1463 8.44481 11.2874 8.34557 11.3951C8.24633 11.5028 8.11021 11.5692 7.96425 11.5812L7.91659 11.5832C7.77014 11.5831 7.62905 11.5281 7.52135 11.4288C7.41365 11.3296 7.34722 11.1935 7.33525 11.0475L7.33325 10.9998V4.57516L5.73725 6.17183C5.63471 6.27433 5.49768 6.33498 5.35286 6.34194C5.20804 6.34891 5.06582 6.30169 4.95392 6.2095L4.91225 6.1715C4.8097 6.069 4.74899 5.93199 4.74197 5.78717C4.73494 5.64235 4.7821 5.5001 4.87425 5.38816L4.91225 5.3465L7.49625 2.76183C7.51493 2.74254 7.53486 2.7245 7.55592 2.70783L7.59359 2.68116C7.60625 2.67216 7.61925 2.66416 7.63292 2.6565L7.63925 2.6535C7.69932 2.62056 7.7648 2.59866 7.83259 2.58883H7.83292Z"
        fill="#8B9199"></path>
</svg>